<svg xmlns="http://www.w3.org/2000/svg" viewBox="0 0 318.6 318.6">
  <polygon fill="#E2761B" points="274.1,35.5 175.7,108.9 194,65.1"/>
  <polygon fill="#E4761B" points="44.5,35.5 142.2,109.6 124.6,65.1"/>
  <polygon fill="#E4761B" points="238.6,229.4 211.9,270.8 268.4,286.3 284.7,230.3"/>
  <polygon fill="#E4761B" points="33.8,230.3 50,286.3 106.5,270.8 79.9,229.4"/>
  <polygon fill="#E4761B" points="103,138.5 87.2,162.2 144.2,164.9 142.2,103.3"/>
  <polygon fill="#E4761B" points="215.6,138.5 176.2,102.7 175.7,164.9 232.7,162.2"/>
  <polygon fill="#E4761B" points="106.5,270.8 141,253.7 110.7,229.7"/>
  <polygon fill="#E4761B" points="177.6,253.7 212.1,270.8 207.9,229.7"/>
  <polygon fill="#D7C1B3" points="141,253.7 145.3,224.9 111.6,227.7"/>
  <polygon fill="#D7C1B3" points="177.6,253.7 207,227.7 173.4,224.9"/>
  <polygon fill="#233447" points="207,227.7 177.6,253.7 181.4,232.2"/>
  <polygon fill="#233447" points="141,253.7 111.6,227.7 137.2,232.2"/>
  <polygon fill="#CC6228" points="137.5,195.8 110,188.1 129.4,179.2"/>
  <polygon fill="#CC6228" points="181.1,195.8 189.1,179.2 208.5,188.1"/>
  <polygon fill="#E2751B" points="111.6,227.7 110.7,229.7 79.9,229.4 103,138.5 144.2,164.9"/>
  <polygon fill="#E2751B" points="207,227.7 175.7,164.9 215.6,138.5 238.6,229.4 207.9,229.7"/>
  <polygon fill="#E2751B" points="144.2,164.9 142.2,103.3 175.7,102.7 173.4,164.9"/>
  <polygon fill="#F6851B" points="175.7,108.9 194,65.1 218.4,74.4 231.8,106.3"/>
  <polygon fill="#F6851B" points="142.2,109.6 124.6,65.1 100.3,74.4 87.2,106.3"/>
  <polygon fill="#C0AD9E" points="207,227.7 181.4,232.2 183.5,216.4"/>
  <polygon fill="#C0AD9E" points="111.6,227.7 135.4,216.4 137.2,232.2"/>
  <polygon fill="#E2751B" points="183.5,216.4 181.4,232.2 177.6,253.7 173.4,224.9"/>
  <polygon fill="#E2751B" points="135.4,216.4 141,253.7 145.3,224.9"/>
  <polygon fill="#F6851B" points="145.3,224.9 173.4,224.9 177.6,253.7 141,253.7"/>
</svg>
